<svg width="35" height="35" viewBox="0 0 35 35" fill="none" xmlns="http://www.w3.org/2000/svg">
<path d="M20.7812 16.4062H18.5938V7.65625H19.6875C20.8474 7.65757 21.9595 8.11892 22.7796 8.93911C23.5998 9.7593 24.0612 10.8713 24.0625 12.0312C24.0625 12.3213 24.1777 12.5995 24.3829 12.8046C24.588 13.0098 24.8662 13.125 25.1562 13.125C25.4463 13.125 25.7245 13.0098 25.9296 12.8046C26.1348 12.5995 26.25 12.3213 26.25 12.0312C26.248 10.2914 25.556 8.6233 24.3257 7.39302C23.0954 6.16274 21.4274 5.4707 19.6875 5.46875H18.5938V3.28125C18.5938 2.99117 18.4785 2.71297 18.2734 2.50785C18.0683 2.30273 17.7901 2.1875 17.5 2.1875C17.2099 2.1875 16.9317 2.30273 16.7266 2.50785C16.5215 2.71297 16.4062 2.99117 16.4062 3.28125V5.46875H14.7656C13.0251 5.46875 11.3559 6.16015 10.1252 7.39086C8.89453 8.62157 8.20312 10.2908 8.20312 12.0312C8.20312 13.7717 8.89453 15.4409 10.1252 16.6716C11.3559 17.9023 13.0251 18.5938 14.7656 18.5938H16.4062V27.3438H14.2188C13.0588 27.3424 11.9468 26.8811 11.1266 26.0609C10.3064 25.2407 9.84507 24.1287 9.84375 22.9688C9.84375 22.6787 9.72852 22.4005 9.5234 22.1954C9.31828 21.9902 9.04008 21.875 8.75 21.875C8.45992 21.875 8.18172 21.9902 7.9766 22.1954C7.77148 22.4005 7.65625 22.6787 7.65625 22.9688C7.6582 24.7086 8.35024 26.3767 9.58052 27.607C10.8108 28.8373 12.4789 29.5293 14.2188 29.5312H16.4062V31.7188C16.4062 32.0088 16.5215 32.287 16.7266 32.4921C16.9317 32.6973 17.2099 32.8125 17.5 32.8125C17.7901 32.8125 18.0683 32.6973 18.2734 32.4921C18.4785 32.287 18.5938 32.0088 18.5938 31.7188V29.5312H20.7812C22.5217 29.5312 24.1909 28.8398 25.4216 27.6091C26.6523 26.3784 27.3438 24.7092 27.3438 22.9688C27.3438 21.2283 26.6523 19.5591 25.4216 18.3284C24.1909 17.0977 22.5217 16.4062 20.7812 16.4062ZM16.4062 16.4062H14.7656C13.6053 16.4062 12.4925 15.9453 11.672 15.1248C10.8516 14.3044 10.3906 13.1916 10.3906 12.0312C10.3906 10.8709 10.8516 9.75813 11.672 8.93766C12.4925 8.11719 13.6053 7.65625 14.7656 7.65625H16.4062V16.4062ZM20.7812 27.3438H18.5938V18.5938H20.7812C21.9416 18.5938 23.0544 19.0547 23.8748 19.8752C24.6953 20.6956 25.1562 21.8084 25.1562 22.9688C25.1562 24.1291 24.6953 25.2419 23.8748 26.0623C23.0544 26.8828 21.9416 27.3438 20.7812 27.3438Z" fill="#DEA30A"/>
</svg>
