<svg width="31" height="35" viewBox="0 0 31 35" fill="none" xmlns="http://www.w3.org/2000/svg">
<path d="M12.42 14.6826C11.4225 14.6826 10.635 15.5576 10.635 16.6251C10.635 17.6926 11.44 18.5676 12.42 18.5676C13.4175 18.5676 14.205 17.6926 14.205 16.6251C14.2225 15.5576 13.4175 14.6826 12.42 14.6826ZM18.8075 14.6826C17.81 14.6826 17.0225 15.5576 17.0225 16.6251C17.0225 17.6926 17.8275 18.5676 18.8075 18.5676C19.805 18.5676 20.5925 17.6926 20.5925 16.6251C20.5925 15.5576 19.805 14.6826 18.8075 14.6826Z" fill="#DEA30A"/>
<path d="M27.3124 0H3.8624C1.8849 0 0.274902 1.61 0.274902 3.605V27.265C0.274902 29.26 1.8849 30.87 3.8624 30.87H23.7074L22.7799 27.6325L25.0199 29.715L27.1374 31.675L30.8999 35V3.605C30.8999 1.61 29.2899 0 27.3124 0ZM20.5574 22.855C20.5574 22.855 19.9274 22.1025 19.4024 21.4375C21.6949 20.79 22.5699 19.355 22.5699 19.355C21.8524 19.8275 21.1699 20.16 20.5574 20.3875C19.6824 20.755 18.8424 21 18.0199 21.14C16.3399 21.455 14.7999 21.3675 13.4874 21.1225C12.4899 20.93 11.6324 20.65 10.9149 20.37C10.5124 20.2125 10.0749 20.02 9.6374 19.775C9.5849 19.74 9.5324 19.7225 9.4799 19.6875C9.4449 19.67 9.4274 19.6525 9.4099 19.635C9.0949 19.46 8.9199 19.3375 8.9199 19.3375C8.9199 19.3375 9.7599 20.7375 11.9824 21.4025C11.4574 22.0675 10.8099 22.855 10.8099 22.855C6.9424 22.7325 5.4724 20.195 5.4724 20.195C5.4724 14.56 7.9924 9.9925 7.9924 9.9925C10.5124 8.1025 12.9099 8.155 12.9099 8.155L13.0849 8.365C9.9349 9.275 8.4824 10.6575 8.4824 10.6575C8.4824 10.6575 8.8674 10.4475 9.5149 10.15C11.3874 9.3275 12.8749 9.1 13.4874 9.0475C13.5924 9.03 13.6799 9.0125 13.7849 9.0125C14.8524 8.8725 16.0599 8.8375 17.3199 8.9775C18.9824 9.17 20.7674 9.66 22.5874 10.6575C22.5874 10.6575 21.2049 9.345 18.2299 8.435L18.4749 8.155C18.4749 8.155 20.8724 8.1025 23.3924 9.9925C23.3924 9.9925 25.9124 14.56 25.9124 20.195C25.9124 20.195 24.4249 22.7325 20.5574 22.855V22.855Z" fill="#DEA30A"/>
</svg>
