<svg width="35" height="35" viewBox="0 0 35 35" fill="none" xmlns="http://www.w3.org/2000/svg">
<path d="M33.8321 24.8478C33.831 24.8418 33.8299 24.8358 33.8288 24.8298L31.5933 13.2876C31.5916 13.2789 31.5889 13.2708 31.587 13.2622C31.2412 11.3735 30.2447 9.66571 28.7706 8.43535C27.2966 7.20499 25.4381 6.52981 23.5181 6.5271H23.5149L11.485 6.56261C9.55506 6.55878 7.68586 7.23701 6.20745 8.47753C4.72904 9.71805 3.73652 11.4411 3.40516 13.3423C3.40342 13.3522 3.40182 13.3622 3.40035 13.3721L1.17266 24.829C1.17146 24.8353 1.17032 24.8415 1.16919 24.8478C0.987535 25.8786 1.13917 26.9404 1.60208 27.8791C2.06499 28.8178 2.81507 29.5845 3.7434 30.0679C4.67173 30.5513 5.72998 30.7262 6.76447 30.5672C7.79896 30.4082 8.75584 29.9235 9.49615 29.1837C9.51598 29.1639 9.53493 29.1435 9.55302 29.1225L15.1214 22.9669L19.886 22.9478L25.4466 29.1205C25.4651 29.1422 25.4847 29.1632 25.5051 29.1837C26.2454 29.9237 27.2023 30.4084 28.2368 30.5674C29.2714 30.7265 30.3297 30.5516 31.258 30.0682C32.1864 29.5848 32.9365 28.818 33.3994 27.8793C33.8623 26.9405 34.0139 25.8786 33.8321 24.8478L33.8321 24.8478ZM14.2188 15.8595H13.125V16.9532C13.125 17.2433 13.0098 17.5215 12.8047 17.7266C12.5995 17.9318 12.3213 18.047 12.0313 18.047C11.7412 18.047 11.463 17.9318 11.2579 17.7266C11.0527 17.5215 10.9375 17.2433 10.9375 16.9532V15.8595H9.84375C9.55367 15.8595 9.27547 15.7443 9.07036 15.5391C8.86524 15.334 8.75 15.0558 8.75 14.7657C8.75 14.4757 8.86524 14.1975 9.07036 13.9923C9.27547 13.7872 9.55367 13.672 9.84375 13.672H10.9375V12.5782C10.9375 12.2882 11.0527 12.01 11.2579 11.8048C11.463 11.5997 11.7412 11.4845 12.0313 11.4845C12.3213 11.4845 12.5995 11.5997 12.8047 11.8048C13.0098 12.01 13.125 12.2882 13.125 12.5782V13.672H14.2188C14.5088 13.672 14.787 13.7872 14.9922 13.9923C15.1973 14.1975 15.3125 14.4757 15.3125 14.7657C15.3125 15.0558 15.1973 15.334 14.9922 15.5391C14.787 15.7443 14.5088 15.8595 14.2188 15.8595ZM19.6875 14.7657C19.6875 14.4757 19.8027 14.1975 20.0079 13.9923C20.213 13.7872 20.4912 13.672 20.7813 13.672H25.1563C25.4463 13.672 25.7245 13.7872 25.9297 13.9923C26.1348 14.1975 26.25 14.4757 26.25 14.7657C26.25 15.0558 26.1348 15.334 25.9297 15.5391C25.7245 15.7443 25.4463 15.8595 25.1563 15.8595H20.7813C20.4912 15.8595 20.213 15.7442 20.0079 15.5391C19.8027 15.334 19.6875 15.0558 19.6875 14.7657ZM29.4598 28.3954C29.032 28.4705 28.5925 28.4428 28.1776 28.3146C27.7626 28.1863 27.3841 27.9612 27.0733 27.6579L22.8197 22.9362L23.5181 22.9333C24.9127 22.9325 26.2841 22.5762 27.5027 21.898C28.7213 21.2198 29.7469 20.2422 30.4826 19.0574L31.6793 25.2361C31.802 25.9491 31.6374 26.6817 31.2215 27.2737C30.8056 27.8657 30.1722 28.269 29.4598 28.3954Z" fill="#DEA30A"/>
</svg>
